<?xml version="1.0" encoding="UTF-8"?>
<!-- Generated by Pixelmator Pro 3.6.18 -->
<svg width="1080" height="1080" viewBox="0 0 1080 1080" xmlns="http://www.w3.org/2000/svg">
    <g id="Group">
        <path id="Color-Fill" fill="#ffffff" stroke="none" d="M 0 0 L 1080 0 L 1080 1080 L 0 1080 Z"/>
        <path id="Obelisk" fill="#014c75" fill-rule="evenodd" stroke="none" d="M 814.304626 986.84491 L 797.431458 986.84491 C 797.502625 985.563416 797.591614 975.952209 797.698425 958.011047 C 797.805237 940.069885 797.858643 921.701843 797.858643 902.906311 C 797.858643 894.861267 797.84082 884.716125 797.805237 872.470581 C 797.769653 860.225037 797.64502 846.164185 797.431458 830.287659 L 814.304626 830.287659 C 814.091003 842.88916 813.966431 857.519592 813.930847 874.17926 C 813.895264 890.838867 813.877441 900.734863 813.877441 903.867432 C 813.877441 911.200562 813.948608 926.560669 814.091003 949.948242 C 814.233398 973.335815 814.304626 985.634644 814.304626 986.84491 Z M 890.767761 984.709106 L 880.622498 994 C 864.888367 977.981079 850.845337 964.027039 838.493042 952.137512 C 826.140747 940.247925 819.323853 933.698059 818.042358 932.487732 L 818.042358 932.27417 C 819.751038 930.707886 827.22644 923.143555 840.468689 909.580811 C 853.710876 896.018127 864.42572 884.894104 872.613098 876.208252 L 882.971924 886.887512 C 874.499756 895.074951 865.618225 903.707214 856.327332 912.784607 C 847.036377 921.861938 841.216248 927.539673 838.866821 929.817932 L 838.866821 929.924744 C 838.866821 929.924744 844.081787 935.406677 854.511841 946.370728 C 864.941895 957.334778 877.027161 970.114075 890.767761 984.709106 Z M 767.20929 955.55481 C 767.20929 960.823303 765.927795 965.522095 763.364746 969.651367 C 760.801758 973.780701 757.455627 977.126831 753.326294 979.68988 C 748.983398 982.395264 743.8396 984.442139 737.894836 985.830383 C 731.950073 987.218689 725.382385 987.912842 718.191711 987.912842 C 714.703186 987.912842 711.090027 987.752686 707.352295 987.432251 C 703.614563 987.111938 701.496521 986.916138 700.998169 986.84491 L 700.357422 972.855164 C 700.998169 972.926331 703.472168 973.122131 707.77948 973.442505 C 712.086731 973.762878 716.376221 973.923096 720.647888 973.923096 C 723.139709 973.923096 726.343506 973.709473 730.259216 973.282349 C 734.174927 972.855164 737.414307 972.072021 739.977295 970.932922 C 743.537048 969.366638 746.171265 967.444336 747.879883 965.166138 C 749.588562 962.887878 750.442932 960.146912 750.442932 956.943115 C 750.442932 954.02417 749.695374 951.656921 748.200256 949.841431 C 746.7052 948.026001 744.640564 946.263916 742.006348 944.555237 C 739.158569 942.632996 735.26062 940.586121 730.312622 938.414673 C 725.364563 936.243286 721.217468 934.160828 717.871338 932.167358 C 713.101257 929.248413 709.452515 925.79541 706.92511 921.808533 C 704.397705 917.821655 703.134033 913.19397 703.134033 907.925537 C 703.134033 902.657104 704.575684 897.922668 707.459106 893.722168 C 710.342468 889.521729 714.204773 886.139954 719.046021 883.576965 C 723.246521 881.298706 727.891968 879.785828 732.982422 879.038269 C 738.072815 878.290771 743.003052 877.916992 747.773132 877.916992 C 752.115967 877.916992 755.67572 877.988159 758.452332 878.130554 C 761.228943 878.272949 762.830811 878.344116 763.257996 878.344116 L 764.432678 892.547485 C 763.934326 892.547485 761.745056 892.40509 757.86499 892.1203 C 753.984863 891.835571 749.730957 891.693115 745.103333 891.693115 C 741.828369 891.693115 738.713562 891.977905 735.759033 892.547485 C 732.804443 893.117065 730.2948 893.935791 728.230164 895.003723 C 725.168762 896.570007 722.979553 898.456665 721.662415 900.663696 C 720.345337 902.870728 719.686768 905.006592 719.686768 907.071228 C 719.686768 909.919006 720.612305 912.375244 722.463379 914.43988 C 724.314453 916.504517 726.485901 918.248779 728.977722 919.672668 C 731.896667 921.381348 735.883606 923.4104 740.938416 925.759827 C 745.993225 928.109253 749.65979 929.995911 751.937988 931.4198 C 756.921631 934.552368 760.712769 938.040894 763.31134 941.885437 C 765.909973 945.72998 767.20929 950.286377 767.20929 955.55481 Z M 669.280884 858.05365 L 650.485474 858.05365 L 650.485474 839.685364 L 669.280884 839.685364 Z M 668.319763 986.84491 L 651.446594 986.84491 C 651.517822 985.705811 651.606812 978.693176 651.713623 965.806885 C 651.820374 952.920593 651.873779 942.2771 651.873779 933.876038 C 651.873779 926.542908 651.856018 918.480225 651.820374 909.687622 C 651.78479 900.89502 651.660217 890.589661 651.446594 878.771301 L 668.319763 878.771301 C 668.177368 889.023376 668.052795 898.616821 667.945984 907.551758 C 667.839233 916.486755 667.785828 924.442688 667.785828 931.4198 C 667.785828 948.008301 667.874817 961.321533 668.052795 971.360046 C 668.230774 981.39856 668.319763 986.560181 668.319763 986.84491 Z M 610.011292 986.84491 L 593.138123 986.84491 C 593.20929 985.990601 593.29834 975.57843 593.40509 955.608215 C 593.511902 935.638 593.565308 919.067627 593.565308 905.896484 C 593.565308 897.424255 593.547485 886.727417 593.511902 873.805481 C 593.476318 860.883545 593.351685 846.377808 593.138123 830.287659 L 610.011292 830.287659 C 609.868896 841.251709 609.762085 853.942017 609.690918 868.35907 C 609.61969 882.776123 609.584106 894.932495 609.584106 904.828613 C 609.584106 926.400696 609.655334 945.26709 609.797668 961.428406 C 609.940063 977.589722 610.011292 986.061768 610.011292 986.84491 Z M 563.770264 928.856812 L 486.559601 928.856812 C 486.630768 936.403503 488.232666 943.327087 491.365234 949.627869 C 494.497803 955.92865 499.303436 961.143616 505.782166 965.272949 C 509.911469 967.907104 514.610291 969.882813 519.878723 971.19989 C 525.147156 972.516968 531.483459 973.175537 538.887756 973.175537 C 542.945801 973.175537 546.665771 973.068726 550.047485 972.855164 C 553.42926 972.641602 555.511719 972.499207 556.294861 972.427979 L 554.372559 986.631348 C 553.80304 986.702515 551.916382 986.827148 548.712585 987.005127 C 545.50885 987.183105 541.735535 987.272095 537.392639 987.272095 C 526.001465 987.272095 516.087585 985.7948 507.651031 982.84021 C 499.214417 979.88562 492.290771 975.809753 486.879974 970.612549 C 482.252319 966.269653 478.318787 960.716492 475.079437 953.952942 C 471.840088 947.189392 470.220398 939.678467 470.220398 931.4198 C 470.220398 923.303589 471.430695 915.970581 473.851318 909.420654 C 476.271942 902.870667 479.902893 896.783569 484.74411 891.15918 C 488.944611 886.317932 494.159637 882.5802 500.38916 879.946045 C 506.618713 877.311829 513.079651 875.99469 519.771912 875.99469 C 526.393066 875.99469 532.266602 876.991455 537.392639 878.984863 C 542.518677 880.978333 546.968323 884.00415 550.741638 888.062195 C 554.942139 892.618652 558.145935 898.22522 560.352966 904.881958 C 562.559998 911.538696 563.699097 919.530273 563.770264 928.856812 Z M 547.217529 916.896118 C 546.078369 908.067871 543.070435 901.144287 538.193604 896.125 C 533.316711 891.105774 526.891418 888.596191 518.917603 888.596191 C 510.943756 888.596191 504.287079 891.141357 498.947479 896.231812 C 493.60788 901.322266 489.905731 908.210266 487.841095 916.896118 Z M 451.63855 931.953796 C 451.63855 943.629761 448.77298 953.668152 443.041809 962.069153 C 437.310608 970.470215 429.568237 976.735229 419.814514 980.864563 C 413.47818 983.569946 406.251953 985.545654 398.135712 986.791504 C 390.01947 988.037415 380.265869 988.6604 368.874664 988.6604 C 367.30838 988.6604 365.706512 988.6604 364.069031 988.6604 C 362.431549 988.6604 360.865265 988.6604 359.370178 988.6604 C 359.441376 983.178345 359.530365 972.99762 359.637146 958.117859 C 359.743927 943.238037 359.797333 925.332764 359.797333 904.401428 C 359.797333 891.586243 359.761749 879.162903 359.690552 867.130981 C 359.619354 855.098999 359.512573 842.817993 359.370178 830.287659 L 376.243317 830.287659 L 375.922943 879.51886 C 390.517975 879.661255 402.211548 880.960571 411.00415 883.416748 C 419.796753 885.872986 427.111969 889.201294 432.949951 893.401855 C 439.001495 897.74469 443.62915 903.173218 446.832916 909.687622 C 450.036682 916.201965 451.63855 923.623962 451.63855 931.953796 Z M 434.551819 932.380981 C 434.551819 923.766357 432.113403 916.540161 427.236572 910.702148 C 422.359711 904.864136 416.076843 900.628052 408.387756 897.993896 C 404.400848 896.641174 400.093567 895.591064 395.465912 894.843506 C 390.838257 894.095947 386.068207 893.722168 381.155762 893.722168 C 380.230225 893.722168 379.286896 893.722168 378.325775 893.722168 C 377.364655 893.722168 376.56369 893.722168 375.922943 893.722168 C 375.922943 895.288452 375.905151 900.966187 375.869537 910.755554 C 375.833954 920.544861 375.816162 928.607544 375.816162 934.94397 C 375.816162 946.833496 375.851746 955.234436 375.922943 960.146912 C 375.994141 965.059326 376.029755 970.042969 376.029755 975.097778 C 383.861206 975.097778 391.016235 974.510437 397.494965 973.335693 C 403.973694 972.161011 409.562469 970.327759 414.261322 967.835938 C 421.096008 964.205017 426.186432 959.417175 429.532593 953.472412 C 432.878754 947.527588 434.551819 940.497192 434.551819 932.380981 Z M 326.051025 915.401001 C 326.051025 926.93457 324.075378 937.524719 320.124054 947.171631 C 316.17276 956.818604 311.028992 964.774536 304.692596 971.039673 C 297.644287 978.016846 290.168915 983.089355 282.266266 986.257568 C 274.363586 989.425781 265.89151 991.009827 256.849731 991.009827 C 248.02153 991.009827 239.691849 989.496948 231.860382 986.47113 C 224.0289 983.445374 216.980713 978.942322 210.71553 972.961975 C 203.809601 966.483154 198.238663 958.31366 194.002563 948.453125 C 189.766479 938.592651 187.648438 927.50415 187.648438 915.187378 C 187.648438 904.223389 189.321518 894.238403 192.667664 885.232239 C 196.013824 876.226074 201.033005 868.127747 207.725357 860.937012 C 213.919342 854.244629 221.287903 849.065308 229.831329 845.398743 C 238.374741 841.732239 247.380783 839.898987 256.849731 839.898987 C 266.46106 839.898987 275.360321 841.625427 283.54776 845.078369 C 291.735199 848.531311 298.819 853.319153 304.799408 859.441895 C 311.77652 866.561462 317.062683 874.944519 320.65802 884.591492 C 324.253357 894.238403 326.051025 904.508179 326.051025 915.401001 Z M 307.789581 917.10968 C 307.789581 907.854309 306.241089 898.759277 303.144104 889.82428 C 300.04715 880.889282 295.330536 873.396118 288.994171 867.344543 C 284.722473 863.21521 279.934631 860.011475 274.630615 857.733276 C 269.326569 855.455017 263.399689 854.315918 256.849731 854.315918 C 250.442154 854.315918 244.479691 855.472839 238.962051 857.786621 C 233.444412 860.100464 228.443024 863.5 223.957764 867.985291 C 218.262131 873.680908 213.830307 880.729126 210.66214 889.130127 C 207.493973 897.531128 205.909897 906.288025 205.909897 915.401001 C 205.909897 925.653076 207.529572 934.837097 210.768936 942.953369 C 214.008286 951.06958 218.582504 957.939819 224.491714 963.56427 C 228.54982 967.47998 233.355423 970.63031 238.908661 973.015381 C 244.461899 975.400391 250.406555 976.592896 256.74295 976.592896 C 263.079315 976.592896 269.006195 975.435974 274.523834 973.122131 C 280.041412 970.808289 285.042847 967.47998 289.528107 963.137085 C 294.867737 958.011047 299.246216 951.479004 302.663544 943.54071 C 306.080902 935.602478 307.789581 926.792236 307.789581 917.10968 Z"/>
        <path id="Path" fill="#014c75" fill-rule="evenodd" stroke="none" d="M 538.810486 86 L 380.613678 242.970459 L 335.23941 661.149658 L 435.798615 796.046204 L 645.501404 796.046204 L 742.381592 661.149658 L 695.781006 242.970459 L 538.810486 86 Z"/>
        <path id="path1" fill="#0d6289" fill-rule="evenodd" stroke="none" d="M 538.810486 86 L 695.781006 242.970459 L 538.810486 366.830017 L 538.810486 86 Z"/>
        <path id="path2" fill="#0e6189" fill-rule="evenodd" stroke="none" d="M 538.810486 782.556519 L 742.381592 661.149658 L 538.810486 366.830017 L 538.810486 782.556519 Z"/>
        <path id="path3" fill="#81bcc9" fill-rule="evenodd" stroke="none" d="M 538.810486 366.830017 L 335.23941 661.149658 L 538.810486 782.556519 L 538.810486 366.830017 Z"/>
        <path id="path4" fill="#0caed7" fill-rule="evenodd" stroke="none" d="M 538.810486 366.830017 L 380.613678 242.970459 L 335.23941 661.149658 L 538.810486 366.830017 Z"/>
        <path id="path5" fill="#1fc0e2" fill-rule="evenodd" stroke="none" d="M 538.810486 86 L 538.810486 366.830017 L 380.613678 242.970459 L 538.810486 86 Z"/>
    </g>
</svg>
